<svg xmlns="http://www.w3.org/2000/svg" width="24" height="24" viewBox="0 0 24 24">
    <defs>
        <style>
            .cls-1{opacity:.74}.cls-2,.cls-3{fill:#b1c9c9}.cls-2{opacity:0}
        </style>
    </defs>
    <g id="Layer_2" class="cls-1" data-name="Layer 2" transform="rotate(180 12 12)">
        <g id="arrow-back">
            <path id="Retângulo_195" d="M0 0h24v24H0z" class="cls-2" data-name="Retângulo 195" transform="rotate(90 12 12)"/>
            <path id="Caminho_3897" d="M15 6H3.14l3.63-4.36A1 1 0 0 0 5.23.361l-5 6a1.19 1.19 0 0 0-.09.15.127.127 0 0 1-.07.13.961.961 0 0 0 0 .72.127.127 0 0 0 .07.13 1.19 1.19 0 0 0 .09.15l5 6a1 1 0 1 0 1.54-1.28L3.14 8H15a1 1 0 0 0 0-2z" class="cls-3" data-name="Caminho 3897" transform="translate(4 4.999)"/>
        </g>
    </g>
</svg>
